<svg xmlns="http://www.w3.org/2000/svg" xmlns:xlink="http://www.w3.org/1999/xlink" width="360.211" height="55.042" viewBox="0 0 360.211 55.042">
  <defs>
    <clipPath id="clip-path">
      <rect id="Rectangle_67" data-name="Rectangle 67" width="72.211" height="55.042" fill="none"/>
    </clipPath>
  </defs>
  <g id="Group_33" data-name="Group 33" transform="translate(-124.789 -94)">
    <g id="Group_34" data-name="Group 34">
      <text id="MedicalLogo" transform="translate(214 136)" fill="#321b6c" font-size="45" font-family="Ubuntu" letter-spacing="0.01em"><tspan x="0" y="0">Medical</tspan><tspan y="0" font-family="Ubuntu-Bold, Ubuntu" font-weight="700">Logo</tspan></text>
      <g id="Group_13" data-name="Group 13" transform="translate(124.789 94)" clip-path="url(#clip-path)">
        <path id="Path_47" data-name="Path 47" d="M0,26.957H29.236l3.79-13.264,5.685,21.927L46.02,9.9l4.873,16.514,18.679.541S77.151,3.676,54.682.157c0,0-8.42-1.076-14.618,7.85,0,0-8.662-14.888-25.175-4.061A20.348,20.348,0,0,0,9.475,25.163Z" transform="translate(0 0)" fill="#01d6a3"/>
        <path id="Path_48" data-name="Path 48" d="M23.348,50.523H42.534l1.421-4.873,6.091,22.942,7-25.379,1.827,7.614,24.567.1-6.294,2.436S68.353,68.186,51.5,75.834c0,0-17.393-5.82-28.153-25.311" transform="translate(-11.234 -20.792)" fill="#5431c3"/>
      </g>
    </g>
  </g>
</svg>
